<svg viewBox="0 0 32 32" xmlns="http://www.w3.org/2000/svg" aria-hidden="true">
  <path fill="#fff" d="M16 3.2C8.9 3.2 3.2 8.9 3.2 16c0 2.4.7 4.7 1.9 6.8L3 29l6.4-2c2 1.1 4.2 1.7 6.6 1.7 7.1 0 12.8-5.7 12.8-12.8S23.1 3.2 16 3.2zm0 23.3c-2.1 0-4.1-.6-5.9-1.6l-.4-.2-3.8 1 1-3.7-.3-.4a10.4 10.4 0 0 1-1.6-5.6c0-5.8 4.7-10.5 10.5-10.5S26.5 10.2 26.5 16 21.8 26.5 16 26.5zm6-7.9c-.3-.2-1.9-1-2.2-1.1-.3-.1-.5-.2-.7.2s-.8 1-1 1.2c-.2.2-.4.2-.7.1-1.9-1-3.2-1.7-4.5-3.9-.3-.6.3-.5.9-1.7.1-.2 0-.4 0-.6l-1-2.4c-.3-.6-.5-.5-.7-.5h-.6c-.2 0-.5.1-.8.4-1 1-1.2 2.3-.9 3.7.6 2.5 2.3 4.6 4.7 6 3.3 1.9 3.3 1.3 3.9 1.2.6-.1 1.9-.8 2.2-1.5.3-.7.3-1.4.2-1.5l-.5-.3z"/>
</svg>
